<svg width="103" height="17" viewBox="0 0 103 17" fill="none" xmlns="http://www.w3.org/2000/svg">
<path d="M94.6314 0L96.5103 5.87336L102.591 5.87336L97.6716 9.50329L99.5505 15.3766L94.6314 11.7467L89.7124 15.3766L91.5913 9.50329L86.6723 5.87336L92.7525 5.87336L94.6314 0Z" fill="#D12136"/>
<path d="M72.7438 0L74.6227 5.87336L80.7029 5.87336L75.7839 9.50329L77.6628 15.3766L72.7438 11.7467L67.8247 15.3766L69.7036 9.50329L64.7846 5.87336L70.8648 5.87336L72.7438 0Z" fill="#D12136"/>
<path d="M50.8561 0L52.735 5.87336L58.8152 5.87336L53.8962 9.50329L55.7751 15.3766L50.8561 11.7467L45.937 15.3766L47.8159 9.50329L42.8969 5.87336L48.9772 5.87336L50.8561 0Z" fill="#D12136"/>
<path d="M30.2564 0L32.1353 5.87336L38.2156 5.87336L33.2966 9.50329L35.1755 15.3766L30.2564 11.7467L25.3374 15.3766L27.2163 9.50329L22.2973 5.87336L28.3775 5.87336L30.2564 0Z" fill="#D12136"/>
<path d="M8.5 0L10.4084 5.52786H16.584L11.5878 8.94427L13.4962 14.4721L8.5 11.0557L3.50383 14.4721L5.41219 8.94427L0.416019 5.52786H6.59163L8.5 0Z" fill="#D12136"/>
</svg>
